<?xml version="1.0" standalone="no"?><!DOCTYPE svg PUBLIC "-//W3C//DTD SVG 1.1//EN" "http://www.w3.org/Graphics/SVG/1.1/DTD/svg11.dtd"><svg t="1707547055292" class="icon" viewBox="0 0 1024 1024" version="1.1" xmlns="http://www.w3.org/2000/svg" p-id="50066" xmlns:xlink="http://www.w3.org/1999/xlink" width="200" height="200"><path d="M155 459.9h319.9V140c0-30.4-24.7-55.1-55.1-55.1H155c-30.4 0-55.1 24.7-55.1 55.1v264.8c0 30.4 24.7 55.1 55.1 55.1z m-11.1-320c0-6 5.1-11.1 11.1-11.1l264.9 0.1c6 0 11.1 5.1 11.1 11.1v275.8H155c-6 0-11.1-5.1-11.1-11.1V139.9zM875 84.9H610.2c-30.4 0-55.1 24.7-55.1 55.1v319.9H875c30.4 0 55.1-24.7 55.1-55.1V140c0-30.4-24.7-55.1-55.1-55.1z m11.1 319.9c0 6-5.1 11.1-11.1 11.1H599.1V140c0-6 5.1-11.1 11.1-11.1H875c6 0 11.1 5.1 11.1 11.1v264.8zM99.9 595.1V860c0 30.4 24.7 55.1 55.1 55.1h264.9c30.3 0 55.1-24.8 55.1-55.1V540H155c-30.4 0-55.1 24.7-55.1 55.1z m331 264.9c0 6-5.1 11.1-11.1 11.1H155c-6 0-11.1-5.1-11.1-11.1V595.1c0-6 5.1-11.1 11.1-11.1h275.9v276zM875 540H555.1v320c0 30.4 24.7 55.1 55.1 55.1H875c30.4 0 55.1-24.8 55.1-55.1V595.1c0-30.4-24.7-55.1-55.1-55.1z m11.1 320c0 6-5.1 11.1-11.1 11.1H610.2c-6 0-11.1-5.1-11.1-11.1V584H875c6 0 11.1 5.1 11.1 11.1V860z" fill="#777e90" p-id="50067"></path></svg>