<?xml version="1.0" standalone="no"?><!DOCTYPE svg PUBLIC "-//W3C//DTD SVG 1.1//EN" "http://www.w3.org/Graphics/SVG/1.1/DTD/svg11.dtd"><svg t="1709269775197" class="icon" viewBox="0 0 1024 1024" version="1.1" xmlns="http://www.w3.org/2000/svg" p-id="1831" xmlns:xlink="http://www.w3.org/1999/xlink" width="200" height="200"><path d="M512 901.747c-13.584 0-26.122-4.18-37.094-13.061-8.882-7.315-225.698-175.02-312.424-311.38-28.735-44.93-68.441-106.057-68.441-192.784 0-144.718 108.147-262.269 240.326-262.269 67.396 0 131.657 30.825 177.633 84.637 45.453-54.335 109.192-84.637 177.11-84.637 132.702 0 240.327 117.551 240.327 262.27 0 85.159-37.094 143.673-67.396 191.216l-1.045 1.567c-86.727 136.36-303.543 304.588-312.425 311.38-10.449 8.359-22.987 13.06-36.571 13.06zM334.367 164.049c-109.714 0-198.53 98.743-198.53 220.473 0 74.188 33.959 127.478 61.649 170.319 83.07 130.09 294.138 294.139 303.02 300.93 3.657 2.613 7.314 4.18 11.494 4.18s7.837-1.567 11.494-4.18c8.882-6.791 219.95-170.84 303.02-300.93l1.045-1.568c28.212-44.93 60.604-95.608 60.604-168.75 0-121.209-89.339-220.474-198.53-220.474-60.082 0-115.984 29.257-153.6 80.98l-6.27 8.881c-4.18 5.225-10.449 8.36-16.718 8.36s-13.061-3.135-16.718-8.36l-6.27-8.881c-39.706-51.2-96.13-80.98-155.69-80.98z" p-id="1832"></path></svg>